<?xml version="1.0" encoding="utf-8"?>
<!-- Generator: Adobe Illustrator 25.2.3, SVG Export Plug-In . SVG Version: 6.00 Build 0)  -->
<svg version="1.1" id="Layer_1" xmlns="http://www.w3.org/2000/svg" xmlns:xlink="http://www.w3.org/1999/xlink" x="0px" y="0px"
	 viewBox="0 0 500 500" style="enable-background:new 0 0 500 500;" xml:space="preserve">
<style type="text/css">
	.st0{fill:#4CC3D3;}
	.st1{fill:none;}
</style>
<g>
	<path class="st0" d="M161.99,434.71h-5.96h-23.84h-1.49l-1.12-0.03l-2.13-0.05c-1.41-0.13-2.83-0.16-4.23-0.37
		c-2.82-0.28-5.58-0.91-8.33-1.55c-5.45-1.47-10.75-3.6-15.65-6.5c-9.82-5.73-18.12-14.22-23.57-24.2c-2.69-5-4.79-10.31-6.02-15.83
		c-0.67-2.75-1.08-5.55-1.34-8.37l-0.17-2.12c-0.05-0.71-0.03-1.42-0.06-2.13l-0.03-1.07l-0.01-0.27l0-0.37v-0.75v-2.98v-47.69
		v-11.92v-5.96v-2.98c-0.01-0.56,0.01-0.87,0.02-1.22l0.03-1.07c0.11-5.69,1.12-11.29,2.75-16.7c3.38-10.79,9.81-20.7,18.36-28.27
		c8.52-7.62,19.1-12.76,30.21-14.76c2.77-0.55,5.6-0.8,8.43-0.95l2.13-0.05l0.53-0.02l0.74,0h1.49h5.96h23.84V219.9h-23.84
		c-3.91,0.01-8.14-0.05-11.56,0.09c-3.59,0.19-7.17,0.52-10.7,1.21c-14.14,2.54-27.54,9.08-38.28,18.68
		c-10.78,9.55-18.92,22.05-23.21,35.77c-2.08,6.87-3.35,14-3.5,21.2c-0.02,0.92-0.06,1.75-0.06,2.75v2.98v5.96v11.92v47.69
		c0.01,1.96-0.02,4.07,0.05,5.78c0.03,0.9,0.03,1.8,0.08,2.7l0.21,2.69c0.34,3.58,0.86,7.14,1.7,10.63
		c1.58,7.01,4.23,13.76,7.65,20.08c6.91,12.62,17.35,23.31,29.77,30.56c6.2,3.66,12.91,6.38,19.85,8.24
		c3.49,0.84,7.01,1.61,10.58,1.97c1.78,0.26,3.58,0.31,5.37,0.47l2.7,0.07l1.37,0.03h1.49h23.84h5.96c1,0,1.83-0.04,2.75-0.06
		c0.9-0.03,1.8-0.02,2.69-0.11c3.59-0.21,7.15-0.72,10.68-1.39c14.08-2.85,27.33-9.66,37.93-19.43
		c10.63-9.73,18.49-22.42,22.49-36.21c2.04-6.89,3.04-14.07,3.12-21.26l0.02-23.77v-29.6v-18.08v-2.4v-58.67v-26.96v-7.34v-47.69
		v-47.69V63.02V15.34h-16.65v47.69v47.69v47.69v47.69v47.69v47.69v47.69l-0.02,23.63c-0.07,5.69-0.85,11.33-2.46,16.75
		c-3.15,10.84-9.35,20.9-17.79,28.62c-8.41,7.74-18.87,13.11-29.94,15.35c-2.78,0.52-5.58,0.93-8.41,1.09
		c-0.7,0.08-1.42,0.06-2.13,0.09l-1.07,0.03C162.85,434.7,162.55,434.72,161.99,434.71z"/>
	<g>
		<path class="st1" d="M275.51,250c-0.09,0.12-0.18,0.23-0.27,0.35c0.38-0.48,0.78-0.95,1.17-1.43
			C275.85,249.59,275.51,250,275.51,250z"/>
		<path class="st0" d="M258.33,301.45v18.08v29.6l-0.02,23.91c-0.1,8.7-1.32,17.41-3.78,25.77c-4.86,16.74-14.38,32.06-27.2,43.81
			c-12.78,11.79-28.82,20.05-45.91,23.5c-4.28,0.82-8.6,1.43-12.94,1.69c-1.08,0.1-2.17,0.1-3.26,0.14
			c-1.06,0.02-2.23,0.07-3.21,0.07h-5.96h-23.84h-1.49l-1.61-0.03l-3.26-0.09c-2.17-0.17-4.35-0.26-6.5-0.56
			c-4.33-0.45-8.61-1.37-12.84-2.4c-8.42-2.24-16.56-5.55-24.05-9.98c-15.03-8.78-27.6-21.66-35.96-36.93
			c-4.14-7.65-7.35-15.84-9.27-24.34c-1.02-4.24-1.66-8.56-2.06-12.89l-0.25-3.26c-0.07-1.09-0.07-2.17-0.11-3.26
			c-0.08-2.26-0.04-4.12-0.05-6.14v-47.69v-11.92v-5.96v-2.98c0-0.98,0.04-2.15,0.07-3.21c0.19-8.7,1.71-17.37,4.24-25.7
			c5.2-16.64,15.04-31.74,28.05-43.27c12.97-11.58,29.2-19.52,46.35-22.61c4.28-0.82,8.63-1.24,12.97-1.46
			c4.52-0.16,8.24-0.08,12.28-0.1h23.84V186.6h-23.84h-5.96h-1.49l-0.75,0l-0.96,0.02l-3.83,0.1c-5.1,0.25-10.2,0.75-15.24,1.71
			c-20.18,3.63-39.23,12.97-54.43,26.54c-15.24,13.51-26.79,31.19-32.9,50.76c-2.99,9.79-4.77,19.99-4.99,30.2l-0.05,1.91
			l-0.03,1.76v2.98v5.96v11.92v47.69v2.98v0.75l0.01,0.86l0.04,1.91c0.04,1.28,0.05,2.55,0.13,3.83l0.29,3.82
			c0.47,5.09,1.24,10.17,2.43,15.15c2.27,9.99,6.03,19.62,10.89,28.59c9.82,17.92,24.53,32.99,42.16,43.3
			c8.8,5.18,18.36,9.09,28.26,11.71c4.97,1.22,10,2.28,15.09,2.82c2.54,0.35,5.09,0.46,7.64,0.65l3.83,0.1l1.86,0.04h1.49h23.84
			h5.96l1.76-0.03l1.91-0.05c1.28-0.04,2.55-0.05,3.83-0.16c5.1-0.3,10.18-1.01,15.21-1.98c20.11-4.06,38.93-13.77,53.9-27.58
			c15.02-13.77,26.19-31.72,31.9-51.4c2.9-9.83,4.34-20.07,4.45-30.27l0.02-24.06v-47.69v-2.4c0.02-11.66,3.32-23.13,9.55-33.02
			c6.19-9.88,15.22-18.07,25.68-23.15c5.23-2.53,10.77-4.39,16.48-5.36c1.42-0.31,2.87-0.41,4.3-0.63l2.17-0.17
			c0.72-0.07,1.45-0.11,2.18-0.11l2.2-0.06h3.05h6.11h12.21h6.11h3.05l1.5,0l1.09,0.03c2.92,0,5.8,0.35,8.67,0.75
			c2.86,0.47,5.68,1.14,8.45,1.97c11.06,3.42,21.21,10.07,28.86,18.92c7.68,8.83,12.8,19.73,14.58,31.17
			c0.38,2.87,0.74,5.75,0.72,8.68l0.03,1.14v1.53v3.05v6.11v24.42v48.85v48.85v48.85h16.65v-48.85v-48.85v-48.85v-24.42v-6.11v-3.05
			v-1.53l-0.03-1.4c0-3.69-0.42-7.35-0.92-11c-2.26-14.55-8.77-28.38-18.46-39.51c-9.66-11.15-22.45-19.56-36.52-23.91
			c-3.52-1.06-7.11-1.91-10.74-2.5c-3.64-0.52-7.3-0.95-10.99-0.96l-1.38-0.04l-1.52,0h-3.05h-6.11h-12.21h-6.11h-3.05l-2.77,0.07
			c-0.92,0.01-1.84,0.05-2.76,0.14l-2.75,0.22c-1.82,0.26-3.66,0.41-5.46,0.79c-7.25,1.24-14.3,3.6-20.92,6.81
			c-6.52,3.17-12.57,7.3-17.98,12.14c-3.75,3.46-6.97,7.1-8.48,8.85c-0.39,0.48-0.79,0.94-1.17,1.43
			C275.25,250.35,259.14,267.67,258.33,301.45z"/>
		<path class="st0" d="M481.89,297.32c-0.02-5.23-0.58-10.46-1.32-15.64c-3.22-20.76-12.51-40.46-26.21-56.19
			c-13.66-15.77-31.75-27.69-51.82-33.9c-5.02-1.52-10.14-2.73-15.31-3.57c-5.18-0.77-10.41-1.33-15.64-1.37l-1.96-0.04l-1.56,0
			h-3.05h-6.11h-12.21h-6.11h-3.05l-3.9,0.09c-1.31,0.02-2.61,0.09-3.92,0.2l-3.91,0.32c-2.6,0.34-5.21,0.6-7.78,1.11
			c-10.34,1.78-20.4,5.13-29.81,9.71c-4.59,2.24-9.01,4.8-13.23,7.64v-47.28v-47.69V63.02V15.34h-16.65v47.69v47.69v47.69v47.69
			v7.34v5.95v24.61c9.06-12,19.63-19.83,19.63-19.83l0.01,0c5.43-4.34,11.32-8.1,17.58-11.16c8.02-3.9,16.57-6.75,25.37-8.26
			c2.19-0.44,4.41-0.65,6.62-0.95l3.33-0.27c1.11-0.1,2.22-0.16,3.34-0.17l3.33-0.08h3.05h6.11h12.21h6.11h3.05l1.54,0l1.67,0.04
			c4.46,0.02,8.9,0.52,13.31,1.17c4.41,0.71,8.75,1.75,13.03,3.04c17.07,5.27,32.51,15.44,44.17,28.9
			c11.69,13.43,19.59,30.19,22.34,47.85c0.62,4.41,1.11,8.86,1.12,13.32l0.04,1.65v1.53v3.05v6.11v24.42v48.85v48.85v48.85h16.65
			v-48.85v-48.85v-48.85v-24.42v-6.11v-3.05v-1.53L481.89,297.32z"/>
		<path class="st0" d="M276.42,248.92c1.5-1.76,4.73-5.4,8.48-8.85C281.85,242.8,279.02,245.76,276.42,248.92z"/>
	</g>
</g>
</svg>
